<?xml version="1.0" standalone="no"?>
<!DOCTYPE svg PUBLIC "-//W3C//DTD SVG 20010904//EN"
 "http://www.w3.org/TR/2001/REC-SVG-20010904/DTD/svg10.dtd">
<svg version="1.0" xmlns="http://www.w3.org/2000/svg"
 width="2000.000000pt" height="1100.000000pt" viewBox="0 0 2000.000000 1100.000000"
 preserveAspectRatio="xMidYMid meet">

<g transform="translate(0.000000,1100.000000) scale(0.100000,-0.100000)"
fill="#000000" stroke="none">
<path d="M12048 7745 c-10 -13 -18 -41 -18 -63 0 -41 14 -59 62 -80 22 -9 35
-8 63 4 41 17 59 53 49 98 -10 51 -31 66 -88 66 -42 -1 -54 -5 -68 -25z"/>
<path d="M11388 7711 c-36 -36 -39 -100 -7 -130 56 -52 124 -38 145 31 9 29 8
42 -7 73 -23 46 -34 55 -74 55 -20 -1 -40 -10 -57 -29z"/>
<path d="M8355 7603 c-16 -3 -34 -9 -39 -14 -6 -5 -18 -9 -28 -9 -56 0 -187
-104 -225 -179 -10 -20 -25 -47 -33 -60 -17 -28 -38 -120 -39 -169 -1 -39 21
-87 44 -96 9 -3 32 -6 51 -6 52 0 84 39 84 102 0 50 30 126 56 141 8 4 14 15
14 22 0 8 7 15 15 15 8 0 15 5 15 10 0 6 10 15 23 21 12 5 33 16 47 24 39 23
125 19 173 -7 89 -49 147 -131 147 -208 0 -48 18 -96 42 -111 7 -5 32 -9 55
-9 34 0 46 5 67 31 41 48 31 134 -30 266 -27 58 -123 159 -171 179 -17 8 -34
18 -38 24 -3 5 -16 10 -28 10 -12 0 -40 7 -62 15 -39 14 -80 16 -140 8z"/>
<path d="M12747 6843 c-32 -8 -93 -77 -121 -136 -14 -31 -30 -58 -35 -61 -5
-4 -12 -23 -16 -44 -10 -62 -65 -112 -122 -112 -33 0 -73 25 -73 44 0 8 -7 16
-15 20 -8 3 -15 14 -15 24 0 11 -7 25 -15 32 -8 7 -15 20 -15 29 0 9 -9 27
-20 41 -11 14 -20 31 -20 38 0 7 -7 15 -15 18 -8 4 -15 11 -15 18 0 13 -34 45
-69 63 -28 15 -97 17 -106 3 -3 -5 -14 -10 -23 -10 -28 -1 -82 -78 -172 -242
-24 -45 -46 -58 -97 -58 -30 0 -46 7 -67 29 -30 31 -35 39 -76 117 -14 26 -52
71 -84 100 -50 46 -65 54 -98 54 -41 0 -127 -38 -128 -56 0 -5 -13 -23 -30
-39 -16 -15 -36 -43 -45 -61 -9 -19 -20 -34 -25 -34 -6 0 -10 -6 -10 -13 0
-16 -34 -48 -73 -67 -23 -12 -34 -12 -65 0 -36 12 -81 47 -82 62 0 4 -11 19
-25 34 -14 15 -25 32 -25 38 -1 13 -45 56 -83 81 -38 24 -148 23 -188 -3 -25
-16 -106 -102 -126 -136 -15 -23 -71 -56 -109 -64 -29 -6 -39 -13 -39 -27 0
-18 7 -20 67 -20 60 0 70 3 98 30 18 17 50 55 72 87 46 66 75 80 149 76 52 -3
54 -4 106 -68 29 -36 58 -76 64 -90 15 -32 112 -81 159 -80 49 0 128 55 167
116 7 10 24 39 37 64 25 45 96 100 130 100 21 0 96 -60 96 -77 0 -7 4 -13 10
-13 5 0 12 -11 16 -24 3 -14 14 -32 25 -42 10 -9 19 -23 19 -29 0 -14 75 -95
88 -95 5 0 23 -7 40 -16 18 -9 42 -13 54 -9 80 22 125 67 183 180 37 73 65
111 96 128 29 17 38 17 72 6 31 -10 44 -22 60 -56 12 -24 25 -43 29 -43 4 0 8
-6 8 -14 0 -26 49 -112 90 -159 77 -87 166 -87 238 2 36 44 44 59 92 163 11
25 28 52 36 58 7 7 14 16 14 21 0 14 36 46 59 54 16 5 21 15 21 41 0 35 -7 39
-53 27z"/>
<path d="M11184 5056 c-3 -8 -4 -24 -2 -36 l3 -21 560 1 c307 0 563 4 568 9 5
5 7 19 5 32 l-3 24 -563 3 c-481 2 -563 0 -568 -12z"/>
<path d="M11006 4690 l-26 -40 651 0 c429 0 657 4 670 10 21 12 25 40 7 58 -9
9 -166 12 -644 12 l-631 0 -27 -40z"/>
<path d="M10583 4684 c-10 -28 19 -34 169 -34 l148 0 -11 24 c-11 24 -13 24
-156 25 -122 0 -145 -2 -150 -15z"/>
<path d="M10584 4356 c-3 -8 -4 -23 -2 -33 3 -17 42 -18 868 -18 l865 0 0 30
0 30 -863 3 c-745 2 -863 0 -868 -12z"/>
<path d="M10587 4013 c-14 -13 -6 -33 13 -33 13 0 20 7 20 20 0 19 -20 27 -33
13z"/>
<path d="M10948 4015 c-7 -8 3 -55 12 -55 4 0 10 8 14 18 3 9 9 23 12 30 6 12
-27 18 -38 7z"/>
<path d="M11225 4010 c-3 -5 -2 -10 4 -10 5 0 16 -12 23 -26 l13 -25 520 1
c285 0 523 4 528 9 5 5 7 19 5 32 l-3 24 -542 3 c-356 1 -544 -1 -548 -8z"/>
<path d="M11514 3656 c-3 -8 -4 -25 -2 -38 l3 -23 394 0 c364 0 395 1 405 18
8 12 8 22 0 35 -10 16 -42 17 -403 20 -333 2 -392 0 -397 -12z"/>
<path d="M11612 3278 l3 -33 350 0 350 0 0 30 0 30 -353 3 -353 2 3 -32z"/>
</g>
</svg>
