<?xml version="1.0" standalone="no"?>
<!DOCTYPE svg PUBLIC "-//W3C//DTD SVG 20010904//EN"
 "http://www.w3.org/TR/2001/REC-SVG-20010904/DTD/svg10.dtd">
<svg version="1.0" xmlns="http://www.w3.org/2000/svg"
 width="200.000000pt" height="200.000000pt" viewBox="0 0 200.000000 200.000000"
 preserveAspectRatio="xMidYMid meet">

<g transform="translate(0.000000,200.000000) scale(0.100000,-0.100000)"
fill="#000000" stroke="none">
<path d="M210 1222 c-42 -21 -60 -53 -60 -110 0 -48 33 -92 69 -92 26 0 35 16
32 61 -1 29 3 40 19 49 16 9 22 8 26 -5 7 -16 6 -23 -22 -155 -15 -76 -16 -91
-3 -130 19 -60 63 -87 114 -70 43 14 116 94 148 163 14 29 35 74 47 100 31 66
69 90 135 83 28 -2 58 -7 67 -11 12 -5 21 2 32 24 9 16 16 32 16 35 0 2 -20
12 -45 22 -35 13 -59 15 -113 9 -78 -8 -109 -8 -176 1 -41 5 -52 3 -63 -12
-19 -26 -17 -32 19 -66 31 -29 32 -30 19 -76 -14 -55 -69 -150 -94 -163 -28
-16 -30 9 -7 102 36 153 22 216 -58 243 -57 20 -59 20 -102 -2z"/>
<path d="M1705 1080 c-10 -11 -23 -30 -29 -42 -16 -32 -42 -33 -68 -3 -30 34
-96 45 -133 21 -14 -9 -38 -41 -52 -71 -30 -61 -43 -69 -43 -26 0 15 -5 42
-11 60 -15 43 -44 40 -95 -10 l-41 -40 -7 39 c-6 38 -20 52 -51 52 -7 0 -35
-20 -63 -45 -27 -25 -53 -45 -56 -45 -3 0 -6 10 -6 23 0 30 -18 47 -48 47 -16
0 -44 -21 -89 -70 -36 -38 -70 -70 -74 -70 -5 0 -9 13 -9 30 0 23 -5 31 -24
36 -35 9 -58 -2 -81 -39 -22 -34 -53 -47 -66 -26 -12 20 9 49 46 65 59 24 74
74 22 74 -112 0 -204 -141 -131 -199 31 -24 96 -28 133 -7 21 12 29 11 58 -7
33 -19 37 -19 68 -4 19 9 52 32 73 52 22 19 42 35 46 35 3 0 6 -18 6 -40 0
-34 4 -41 25 -46 21 -5 36 2 76 36 28 23 51 41 53 39 1 -2 8 -18 15 -36 23
-58 65 -53 115 12 33 43 46 44 46 5 0 -21 8 -35 26 -46 24 -16 27 -16 52 3 25
18 30 18 61 6 48 -20 79 -9 133 49 57 60 114 79 155 53 45 -30 17 -47 -57 -34
-42 7 -30 -24 20 -48 57 -29 119 -30 148 -3 22 21 28 46 14 66 -4 6 -28 25
-54 43 -27 17 -48 36 -48 41 0 18 21 21 56 10 25 -9 39 -9 46 -2 16 16 -8 41
-57 63 -52 24 -78 24 -100 -1z m-155 -100 c0 -39 -47 -91 -61 -69 -11 18 -2
48 24 77 28 30 37 28 37 -8z"/>
</g>
</svg>
